<svg id="Layer_1" data-name="Layer 1" xmlns="http://www.w3.org/2000/svg" xmlns:xlink="http://www.w3.org/1999/xlink" viewBox="0 0 221.07 95.96"><defs><style>.cls-1{fill:none;}.cls-2{clip-path:url(#clip-path);}.cls-3{fill:#221f1f;}.cls-4{opacity:0.76;}.cls-5{clip-path:url(#clip-path-2);}.cls-6{fill:#f8c019;}.cls-7{fill:#fff;}.cls-10,.cls-8{font-size:34.8px;font-family:Poppins-ExtraBold, Poppins;font-weight:800;}.cls-8{fill:#4e4f4f;}.cls-9{font-size:28.48px;}.cls-10{fill:#fabe17;}</style><clipPath id="clip-path" transform="translate(-22.52 -24)"><rect class="cls-1" x="0.27" y="0.12" width="143.73" height="143.73"/></clipPath><clipPath id="clip-path-2" transform="translate(-22.52 -24)"><rect class="cls-1" x="25.46" y="26.94" width="96.3" height="93.02"/></clipPath></defs><title>Untitled-1</title><g class="cls-2"><path class="cls-3" d="M73.08,73c.34.35.69.69,1,1v-.48c-.35-.17-.7-.34-1-.53" transform="translate(-22.52 -24)"/><g class="cls-4"><g class="cls-5"><path class="cls-3" d="M121.54,33.83a17.82,17.82,0,0,0,0-5.57v5.57Z" transform="translate(-22.52 -24)"/><path class="cls-3" d="M73.17,28.26H73c-.93,0-1.82-.1-2.71-.16-4-.26-7.76-.65-11.18-1.13v0l0,0-.09,0V27c-.71.34-1.53.74-2.41,1.21A73.35,73.35,0,0,0,42,38.31a69.73,69.73,0,0,0-8.18,8.59,66.72,66.72,0,0,0-8.37,13.43s3.13-3,10.88-6.24A94.61,94.61,0,0,1,59,48.23c2,1,3.25,1.38,3.25,1.38A5.4,5.4,0,0,1,59,50.79c1.25.58,2.44,1.06,3.6,1.51,1.48.58,2.89,1.06,4.22,1.46s2.39.66,3.48.9c7.29,1.58,11.49.61,11.49.61v-7.6H98.44c1.09,0,2.12,0,3.11,0,15.19-.44,19.13-8.26,20-13.84V28.26Z" transform="translate(-22.52 -24)"/><path class="cls-3" d="M110.32,61,76.68,60.4c-2.29-.19-4.41-.48-6.39-.82A57,57,0,0,1,58.6,56.33v0S57.51,66.84,65.75,74a15.42,15.42,0,0,1-7,.53l0,0v23c-.05,10.86,5,16.46,10.45,19.35.35.19.7.36,1.06.53A28.27,28.27,0,0,0,81.69,120l.1-41.27H99.67C112,74.37,110.57,62.56,110.32,61" transform="translate(-22.52 -24)"/><polygon class="cls-3" points="87.98 37.01 87.96 37.01 87.98 37.04 87.98 37.01"/><path class="cls-3" d="M110.28,60.83a1.08,1.08,0,0,1,0,.18h.16Z" transform="translate(-22.52 -24)"/></g></g><path class="cls-6" d="M70.23,25.32h-.17c-.93,0-1.82-.1-2.72-.16-4-.26-7.75-.65-11.17-1.13v0h-.12v.06c-.72.34-1.53.74-2.41,1.21a73.37,73.37,0,0,0-14.58,10.1A70.43,70.43,0,0,0,30.89,44a66.91,66.91,0,0,0-8.37,13.42s3.13-3,10.88-6.23a94.14,94.14,0,0,1,22.68-5.86c2,1,3.25,1.38,3.25,1.38a5.48,5.48,0,0,1-3.28,1.18c1.25.58,2.44,1.06,3.6,1.51,1.48.58,2.89,1.06,4.21,1.46s2.39.66,3.48.9c7.3,1.58,11.5.61,11.5.61v-7.6H95.5c1.09,0,2.12,0,3.11,0,15.18-.44,19.13-8.26,20-13.84V25.32Z" transform="translate(-22.52 -24)"/><path class="cls-6" d="M107.37,58.07l-33.63-.61c-2.29-.19-4.41-.48-6.4-.83a57.77,57.77,0,0,1-11.68-3.24v0S54.57,63.9,62.81,71a15.42,15.42,0,0,1-7,.53l0,0v23c0,10.86,5.06,16.46,10.46,19.35.35.19.7.36,1,.53A28.33,28.33,0,0,0,78.75,117l.1-41.27H96.73c12.37-4.32,10.89-16.13,10.64-17.68" transform="translate(-22.52 -24)"/><polygon class="cls-6" points="85.04 34.07 85.02 34.07 85.04 34.1 85.04 34.07"/><path class="cls-7" d="M107.34,57.89a1.08,1.08,0,0,1,0,.18h.16Z" transform="translate(-22.52 -24)"/></g><text class="cls-8" transform="translate(107.32 64.71)">FOR IT<tspan class="cls-9" x="108.3" y="0"> </tspan></text><text class="cls-10" transform="translate(104.16 61.55)">FOR IT<tspan class="cls-9" x="108.3" y="0"> </tspan></text></svg>