<svg id="Layer_1" data-name="Layer 1" xmlns="http://www.w3.org/2000/svg" xmlns:xlink="http://www.w3.org/1999/xlink" viewBox="0 0 266.82 123.79"><defs><style>.cls-1{fill:none;}.cls-2{clip-path:url(#clip-path);}.cls-3{clip-path:url(#clip-path-2);}.cls-4{fill:#221f1f;}.cls-5{opacity:0.76;}.cls-6{clip-path:url(#clip-path-3);}.cls-7{fill:#f8c019;}.cls-8{fill:#fff;}.cls-11,.cls-9{font-size:70.85px;font-family:Poppins-ExtraBold, Poppins;font-weight:800;}.cls-9{fill:#5e5f5f;}.cls-10{font-size:57.97px;}.cls-11{fill:#f5be1a;}</style><clipPath id="clip-path" transform="translate(-18.66 -40.21)"><rect class="cls-1" width="432" height="144"/></clipPath><clipPath id="clip-path-2" transform="translate(-18.66 -40.21)"><rect class="cls-1" x="-0.08" y="20.09" width="121.07" height="121.07"/></clipPath><clipPath id="clip-path-3" transform="translate(-18.66 -40.21)"><rect class="cls-1" x="21.14" y="42.69" width="81.12" height="78.36"/></clipPath></defs><title>Logo -- 2</title><g class="cls-2"><g class="cls-3"><path class="cls-4" d="M61.25,81.44c.29.3.59.58.89.85v-.4c-.3-.14-.59-.29-.89-.45" transform="translate(-18.66 -40.21)"/><g class="cls-5"><g class="cls-6"><path class="cls-4" d="M102.07,48.49a14.78,14.78,0,0,0,0-4.69v4.69Z" transform="translate(-18.66 -40.21)"/><path class="cls-4" d="M61.33,43.8h-.15l-2.28-.13c-3.41-.22-6.53-.55-9.42-1h-.1v.05c-.6.28-1.28.62-2,1a62.5,62.5,0,0,0-12.27,8.51,59.3,59.3,0,0,0-6.89,7.24,55.8,55.8,0,0,0-7,11.31s2.64-2.56,9.17-5.26a79.28,79.28,0,0,1,19.1-4.93c1.7.8,2.74,1.16,2.74,1.16a4.6,4.6,0,0,1-2.77,1c1,.49,2,.9,3,1.28,1.25.48,2.44.89,3.56,1.22s2,.56,2.93.76c6.14,1.34,9.68.51,9.68.51v-6.4h14c.92,0,1.79,0,2.62,0,12.79-.37,16.12-7,16.84-11.65V43.8Z" transform="translate(-18.66 -40.21)"/><path class="cls-4" d="M92.62,71.38l-28.33-.51c-1.94-.16-3.72-.41-5.39-.7a48.41,48.41,0,0,1-9.85-2.73l0,0s-.93,8.84,6,14.85a13,13,0,0,1-5.91.44l0,0v19.39c0,9.14,4.26,13.86,8.81,16.29.3.16.59.31.89.45A23.76,23.76,0,0,0,68.5,121l.09-34.77H83.65c10.42-3.63,9.18-13.59,9-14.89" transform="translate(-18.66 -40.21)"/><polygon class="cls-4" points="74.11 31.18 74.09 31.18 74.11 31.2 74.11 31.18"/><path class="cls-4" d="M92.59,71.23s0,.06,0,.15h.13Z" transform="translate(-18.66 -40.21)"/></g></g><path class="cls-7" d="M58.85,41.32H58.7c-.78,0-1.53-.08-2.28-.13-3.4-.22-6.53-.55-9.42-1h-.1v0c-.6.28-1.28.62-2,1A61.91,61.91,0,0,0,32.6,49.79,58.46,58.46,0,0,0,25.71,57a55.8,55.8,0,0,0-7,11.31s2.64-2.56,9.17-5.25a78.88,78.88,0,0,1,19.1-4.94c1.71.8,2.74,1.16,2.74,1.16a4.65,4.65,0,0,1-2.77,1c1.05.48,2.06.89,3,1.27,1.24.48,2.43.89,3.55,1.22s2,.56,2.93.76c6.14,1.34,9.68.52,9.68.52v-6.4h14c.93,0,1.79,0,2.63,0,12.79-.37,16.11-7,16.83-11.66V41.32Z" transform="translate(-18.66 -40.21)"/><path class="cls-7" d="M90.14,68.9l-28.33-.51c-1.94-.16-3.72-.4-5.39-.69A48.71,48.71,0,0,1,46.58,65v0s-.93,8.84,6,14.85a13,13,0,0,1-5.91.45h0V99.68c0,9.14,4.26,13.86,8.81,16.29.3.16.59.31.89.45A23.79,23.79,0,0,0,66,118.56l.08-34.77H81.17c10.42-3.63,9.18-13.58,9-14.89" transform="translate(-18.66 -40.21)"/><polygon class="cls-7" points="71.64 28.7 71.61 28.7 71.64 28.72 71.64 28.7"/><path class="cls-8" d="M90.11,68.75l0,.15h.13Z" transform="translate(-18.66 -40.21)"/></g><text class="cls-9" transform="translate(75.02 80.15)">OR IT<tspan class="cls-10" x="180.73" y="0"> </tspan></text><text class="cls-11" transform="translate(72.59 78.93)">OR IT<tspan class="cls-10" x="180.73" y="0"> </tspan></text></g></svg>