<svg id="Layer_1" data-name="Layer 1" xmlns="http://www.w3.org/2000/svg" viewBox="0 0 497.95 434.36"><defs><style>.cls-1{fill:#f9f9fa;}.cls-2{fill:#48484a;}</style></defs><title>Logo -- 3</title><path class="cls-1" d="M250-317v144H549V-317Zm22.05,70.66a57.45,57.45,0,0,1,4.18-7.41c.91-1.36,1.84-2.68,2.8-3.89a58.25,58.25,0,0,1,6.82-7.24A60.82,60.82,0,0,1,298-273.39l1.17-.61h.43c2.74.36,5.69.66,8.89.86.76.05,1.51.1,2.3.13H352v4.59c-.73,4.6-4.08,11.05-17,11.41-.84,0-1.71,0-2.64,0H319v6.4s-3.5.82-9.58-.51c-.91-.2-1.88-.46-2.9-.76s-2.29-.74-3.52-1.23c-1-.37-2-.79-3-1.27a4.62,4.62,0,0,0,2.51-.83c-.81-.27-1.64-.56-2.51-.9l-.76-.3a77.58,77.58,0,0,0-18.11,4.81C274.67-248.89,272.05-246.34,272.05-246.34ZM330.91-233H316.08L316-198.23a23.12,23.12,0,0,1-9.46-2.14q-.44-.21-.87-.45a17.5,17.5,0,0,1-2.78-1.89c-3.3-2.76-5.92-7.2-5.89-14.41V-236.5l0,0a12.68,12.68,0,0,0,5.81-.44c-6.83-6-5.92-14.86-5.92-14.86h0a47.16,47.16,0,0,0,9.69,2.73c1.65.29,3.4.53,5.31.7l27.88.51a14.31,14.31,0,0,1,.16,2C339.92-242.5,338.9-235.83,330.91-233Zm60.43,23.21a24.29,24.29,0,0,1-9.28,9.13A25.62,25.62,0,0,1,371-197.42c-.61,0-1.22.06-1.84.06a26.22,26.22,0,0,1-10.65-2.19,22.19,22.19,0,0,1-2.24-1.11,25,25,0,0,1-4.27-3,24.63,24.63,0,0,1-5.05-6.12A25.63,25.63,0,0,1,343.51-223,25.57,25.57,0,0,1,347-236.22a24.23,24.23,0,0,1,5.05-6.11,25,25,0,0,1,4.27-3,26.18,26.18,0,0,1,12.89-3.25c.62,0,1.23,0,1.84.05a25.84,25.84,0,0,1,11.09,3.2l.23.14a24.12,24.12,0,0,1,9,9,25.83,25.83,0,0,1,3.4,13.21A25.9,25.9,0,0,1,391.34-209.79ZM428-197.86h-1.78l-9-16.67-.94-1.75h-1.49v18.42H403.4v-48.73h21.89a23.89,23.89,0,0,1,9,1.55,14.19,14.19,0,0,1,5.09,5.06,16,16,0,0,1,2.13,8.19,14.92,14.92,0,0,1-2.8,9,15.21,15.21,0,0,1-8.18,5.49l11.26,19.48Zm49.61,1.22H463.76v-50h13.89Zm32.23-38.9v38.9H496v-38.9H482.82v-11.05H523.2v11.05Z" transform="translate(-51.05 317)"/><path class="cls-2" d="M163.32,68.81l-.23-.14A25.84,25.84,0,0,0,152,65.47c-.61,0-1.22,0-1.84,0a26.18,26.18,0,0,0-12.89,3.25,25,25,0,0,0-4.27,3,24.23,24.23,0,0,0-5,6.11,27.1,27.1,0,0,0,0,26.43,24.63,24.63,0,0,0,5,6.12,25,25,0,0,0,4.27,3,22.19,22.19,0,0,0,2.24,1.11,26.22,26.22,0,0,0,10.65,2.19c.62,0,1.23,0,1.84-.06a25.62,25.62,0,0,0,11.06-3.24,24.29,24.29,0,0,0,9.28-9.13,27.38,27.38,0,0,0,0-26.43A24.12,24.12,0,0,0,163.32,68.81Zm-4.76,31.46a10.22,10.22,0,0,1-6.56,3.35,15.51,15.51,0,0,1-1.84.12,13,13,0,0,1-4.26-.67,9.73,9.73,0,0,1-4.17-2.76q-3-3.44-3-9.32c0-4,1-7.09,3-9.39a10.68,10.68,0,0,1,8.43-3.43,15.51,15.51,0,0,1,1.84.12,10.83,10.83,0,0,1,4.8,1.76,10.29,10.29,0,0,1,1.76,1.55c2.05,2.3,3.08,5.42,3.08,9.39S160.61,98,158.56,100.27Z" transform="translate(-51.05 317)"/><path class="cls-2" d="M92.85,65.6c-1.91-.17-3.66-.41-5.31-.7a47.16,47.16,0,0,1-9.69-2.73h0S77,71,83.78,77a12.68,12.68,0,0,1-5.81.44l0,0V96.88c0,7.21,2.59,11.65,5.89,14.41a17.5,17.5,0,0,0,2.78,1.89q.43.24.87.45A23.12,23.12,0,0,0,97,115.77L97.08,81h14.83c8-2.83,9-9.5,9-12.93a14.31,14.31,0,0,0-.16-2ZM93,79.29c-.3-.27-.6-.55-.89-.85.3.16.59.31.89.45Z" transform="translate(-51.05 317)"/><path class="cls-2" d="M219.7,91.17a14.92,14.92,0,0,0,2.8-9A16,16,0,0,0,220.37,74,14.19,14.19,0,0,0,215.28,69a23.89,23.89,0,0,0-9-1.55H184.4v48.73h11.46V97.72h1.49l.94,1.75,9,16.67h15.52L211.52,96.66A15.21,15.21,0,0,0,219.7,91.17ZM207,86.88a5.94,5.94,0,0,1-4.25,1.35h-6.87V77.81h6.87A5.87,5.87,0,0,1,207,79.2l0,0A5,5,0,0,1,208.4,83,5.11,5.11,0,0,1,207,86.88Z" transform="translate(-51.05 317)"/><polygon class="cls-2" points="193.71 384.41 193.71 433.14 193.71 434.36 207.59 434.36 207.59 384.41 205.16 384.41 193.71 384.41"/><path class="cls-2" d="M81,57.9c.87.34,1.7.63,2.51.9a4.62,4.62,0,0,1-2.51.83c1,.48,2,.9,3,1.27,1.23.49,2.41.89,3.52,1.23s2,.56,2.9.76c6.08,1.33,9.58.51,9.58.51V57h13.39c.93,0,1.8,0,2.64,0,12.89-.36,16.24-6.81,17-11.41V41H91.79c-.79,0-1.54-.08-2.3-.13-3.2-.2-6.15-.5-8.89-.86h-.43L79,40.61a60.82,60.82,0,0,0-12.15,8.51A58.25,58.25,0,0,0,60,56.36c-1,1.21-1.89,2.53-2.8,3.89a57.45,57.45,0,0,0-4.18,7.41s2.62-2.55,9.08-5.25A77.58,77.58,0,0,1,80.24,57.6Z" transform="translate(-51.05 317)"/><polygon class="cls-2" points="250.72 384.41 212.76 384.41 212.76 394.25 212.76 395.46 223.51 395.46 225.94 395.46 225.94 433.14 225.94 434.36 239.83 434.36 239.83 395.46 253.15 395.46 253.15 384.41 250.72 384.41"/><path class="cls-1" d="M161.32,64.81l-.23-.14A25.84,25.84,0,0,0,150,61.47c-.61,0-1.22,0-1.84,0a26.18,26.18,0,0,0-12.89,3.25,25,25,0,0,0-4.27,3,24.23,24.23,0,0,0-5,6.11,27.1,27.1,0,0,0,0,26.43,24.63,24.63,0,0,0,5,6.12,25,25,0,0,0,4.27,3,22.19,22.19,0,0,0,2.24,1.11,26.22,26.22,0,0,0,10.65,2.19c.62,0,1.23,0,1.84-.06a25.62,25.62,0,0,0,11.06-3.24,24.29,24.29,0,0,0,9.28-9.13,27.38,27.38,0,0,0,0-26.43A24.12,24.12,0,0,0,161.32,64.81Zm-4.76,31.46A10.22,10.22,0,0,1,150,99.62a15.51,15.51,0,0,1-1.84.12,13,13,0,0,1-4.26-.67,9.73,9.73,0,0,1-4.17-2.76q-3-3.44-3-9.32c0-4,1-7.09,3-9.39a10.68,10.68,0,0,1,8.43-3.43,15.51,15.51,0,0,1,1.84.12,10.83,10.83,0,0,1,4.8,1.76,10.29,10.29,0,0,1,1.76,1.55c2.05,2.3,3.08,5.42,3.08,9.39S158.61,94,156.56,96.27Z" transform="translate(-51.05 317)"/><path class="cls-1" d="M90.85,61.6c-1.91-.17-3.66-.41-5.31-.7a47.16,47.16,0,0,1-9.69-2.73h0S75,67,81.78,73a12.68,12.68,0,0,1-5.81.44l0,0V92.88c0,7.21,2.59,11.65,5.89,14.41a17.5,17.5,0,0,0,2.78,1.89q.43.24.87.45A23.12,23.12,0,0,0,95,111.77L95.08,77h14.83c8-2.83,9-9.5,9-12.93a14.31,14.31,0,0,0-.16-2ZM91,75.29c-.3-.27-.6-.55-.89-.85.3.16.59.31.89.45Z" transform="translate(-51.05 317)"/><path class="cls-1" d="M217.7,87.17a14.92,14.92,0,0,0,2.8-9A16,16,0,0,0,218.37,70,14.19,14.19,0,0,0,213.28,65a23.89,23.89,0,0,0-9-1.55H182.4v48.73h11.46V93.72h1.49l.94,1.75,9,16.67h15.52L209.52,92.66A15.21,15.21,0,0,0,217.7,87.17ZM205,82.88a5.94,5.94,0,0,1-4.25,1.35h-6.87V73.81h6.87A5.87,5.87,0,0,1,205,75.2l0,0A5,5,0,0,1,206.4,79,5.11,5.11,0,0,1,205,82.88Z" transform="translate(-51.05 317)"/><polygon class="cls-1" points="191.71 380.41 191.71 429.14 191.71 430.36 205.59 430.36 205.59 380.41 203.16 380.41 191.71 380.41"/><path class="cls-1" d="M79,53.9c.87.34,1.7.63,2.51.9a4.62,4.62,0,0,1-2.51.83c1,.48,2,.9,3,1.27,1.23.49,2.41.89,3.52,1.23s2,.56,2.9.76c6.08,1.33,9.58.51,9.58.51V53h13.39c.93,0,1.8,0,2.64,0,12.89-.36,16.24-6.81,17-11.41V37H89.79c-.79,0-1.54-.08-2.3-.13-3.2-.2-6.15-.5-8.89-.86h-.43L77,36.61a60.82,60.82,0,0,0-12.15,8.51A58.25,58.25,0,0,0,58,52.36c-1,1.21-1.89,2.53-2.8,3.89a57.45,57.45,0,0,0-4.18,7.41s2.62-2.55,9.08-5.25A77.58,77.58,0,0,1,78.24,53.6Z" transform="translate(-51.05 317)"/><polygon class="cls-1" points="248.72 380.41 210.76 380.41 210.76 390.25 210.76 391.46 221.51 391.46 223.94 391.46 223.94 429.14 223.94 430.36 237.83 430.36 237.83 391.46 251.15 391.46 251.15 380.41 248.72 380.41"/></svg>