<svg id="Layer_1" data-name="Layer 1" xmlns="http://www.w3.org/2000/svg" xmlns:xlink="http://www.w3.org/1999/xlink" viewBox="0 0 132 132"><defs><style>.cls-1{fill:none;}.cls-2{clip-path:url(#clip-path);}.cls-3{fill:#fff;}.cls-4{fill:#231f20;}.cls-5{opacity:0.76;}.cls-6{clip-path:url(#clip-path-3);}.cls-7{fill:#fcc201;}</style><clipPath id="clip-path"><rect class="cls-1" width="132" height="132"/></clipPath><clipPath id="clip-path-3"><rect class="cls-1" x="23.13" y="24.64" width="88.44" height="85.43"/></clipPath></defs><title>Logo_Photos</title><g class="cls-2"><rect class="cls-3" width="132" height="132"/><g class="cls-2"><path class="cls-4" d="M66.87,66.89c.31.32.63.63,1,.92v-.44q-.48-.23-1-.48"/><g class="cls-5"><g class="cls-6"><path class="cls-4" d="M111.37,31a16,16,0,0,0,0-5.11V31Z"/><path class="cls-4" d="M67,25.85h-.16c-.85,0-1.67-.09-2.49-.15-3.71-.24-7.12-.59-10.26-1h-.12v.05c-.65.31-1.4.68-2.21,1.11a67.26,67.26,0,0,0-13.38,9.28A64.1,64.1,0,0,0,30.82,43a61.24,61.24,0,0,0-7.69,12.32s2.88-2.78,10-5.72A86.77,86.77,0,0,1,54,44.18c1.87.88,3,1.27,3,1.27a5,5,0,0,1-3,1.09c1.15.53,2.24,1,3.31,1.39,1.36.52,2.65,1,3.88,1.33s2.19.61,3.19.83c6.7,1.46,10.56.56,10.56.56v-7h15.3c1,0,1.94,0,2.86,0,13.94-.4,17.56-7.58,18.35-12.71V25.85Z"/><path class="cls-4" d="M101.06,55.92l-30.88-.56c-2.11-.17-4.06-.44-5.88-.76a52.77,52.77,0,0,1-10.73-3h0s-1,9.64,6.56,16.19a14.13,14.13,0,0,1-6.44.49l0,0V89.48c0,10,4.64,15.11,9.6,17.76.33.17.65.34,1,.49a26.06,26.06,0,0,0,10.47,2.34l.1-37.91H91.29c11.36-4,10-14.82,9.77-16.24"/><polygon class="cls-4" points="101.23 55.92 101.21 55.92 101.23 55.95 101.23 55.92"/><path class="cls-4" d="M101,55.76s0,.06,0,.16h.15Z"/></g></g><path class="cls-7" d="M64.25,23.15h-.16c-.85,0-1.67-.1-2.49-.15-3.71-.24-7.12-.6-10.27-1v0l0,0-.09,0V22c-.65.31-1.4.68-2.21,1.1a67.52,67.52,0,0,0-13.38,9.29,64.1,64.1,0,0,0-7.51,7.89,61.24,61.24,0,0,0-7.69,12.32s2.88-2.78,10-5.72a86.77,86.77,0,0,1,20.82-5.39c1.86.87,3,1.27,3,1.27a5,5,0,0,1-3,1.08c1.15.53,2.24,1,3.31,1.4,1.36.52,2.65,1,3.87,1.33s2.2.61,3.2.83c6.7,1.45,10.56.56,10.56.56V41H87.45c1,0,2,0,2.86,0,14-.41,17.57-7.59,18.36-12.71V23.15Z"/><path class="cls-7" d="M98.36,53.22l-30.88-.56c-2.11-.18-4.06-.44-5.88-.76a52.77,52.77,0,0,1-10.73-3h0s-1,9.64,6.56,16.19a14.13,14.13,0,0,1-6.44.49l0,0V86.77c0,10,4.64,15.12,9.6,17.77l1,.49a26,26,0,0,0,10.47,2.33l.1-37.9H88.59c11.36-4,10-14.82,9.77-16.24"/><polygon class="cls-7" points="98.53 53.22 98.51 53.22 98.53 53.25 98.53 53.22"/><path class="cls-3" d="M98.33,53.06a.81.81,0,0,1,0,.16h.15Z"/></g></g></svg>